<?xml version="1.0" encoding="UTF-8"?>
<svg version="1.1" xmlns="http://www.w3.org/2000/svg" width="500" height="500">
<path d="M0 0 C1.30582031 0.01675781 2.61164063 0.03351562 3.95703125 0.05078125 C35.63290341 1.17403913 63.18841464 15.79227643 89 33 C89 33.66 89 34.32 89 35 C89.69351563 35.21140625 90.38703125 35.4228125 91.1015625 35.640625 C94.87186196 37.40890561 97.40267738 39.87771165 100.375 42.75 C101.53029305 43.84476075 102.68653314 44.93852302 103.84375 46.03125 C104.39160156 46.55074219 104.93945312 47.07023437 105.50390625 47.60546875 C107.23982154 49.22354122 109.03856237 50.74746012 110.875 52.25 C113.94922935 54.8419973 116.52015954 57.74408035 119.12109375 60.8046875 C121.17817323 63.20817745 123.30347289 65.53964958 125.4375 67.875 C131.98665642 75.14689864 137.92780223 82.73226619 143.45703125 90.8046875 C145.08024052 93.17632364 145.08024052 93.17632364 147.4375 95.9375 C149 98 149 98 149 101 C149.66 101 150.32 101 151 101 C152.515625 103.0546875 152.515625 103.0546875 154.25 105.875 C154.86875 106.8753125 155.4875 107.875625 156.125 108.90625 C156.74375 109.9271875 157.3625 110.948125 158 112 C158.8353125 113.37671875 158.8353125 113.37671875 159.6875 114.78125 C161.13392839 117.18232113 162.56873005 119.58987301 164 122 C164.55171875 122.86496094 165.1034375 123.72992188 165.671875 124.62109375 C167 127 167 127 167 129.6875 C164.66510889 137.42182681 160.37823473 144.26944892 156 151 C155.27401954 152.13235119 154.54882845 153.26520865 153.82421875 154.3984375 C143.26805108 170.8875704 143.26805108 170.8875704 140 174 C139.67 174.66 139.34 175.32 139 176 C138.34 176 137.68 176 137 176 C136.77054687 176.5465625 136.54109375 177.093125 136.3046875 177.65625 C129.87835508 189.20055973 115.89133059 201.73911294 105 209 C104.67 209.66 104.34 210.32 104 211 C102.35274892 212.03166936 100.68252376 213.02691646 99 214 C97.36447014 215.10963601 95.73953155 216.23502725 94.125 217.375 C92.81789063 218.29345703 92.81789063 218.29345703 91.484375 219.23046875 C90.00660921 220.28302835 88.53522902 221.34479961 87.078125 222.42578125 C83.62048331 224.98729103 80.16337858 227.05646758 76.27734375 228.90625 C74.60812453 229.70793333 72.9566072 230.54675605 71.31640625 231.40625 C53.94173302 240.45123261 33.70055667 246.71712021 14 247 C13.08621582 247.01901367 12.17243164 247.03802734 11.23095703 247.05761719 C-21.08022476 247.67191736 -21.08022476 247.67191736 -35.2109375 243.9296875 C-38.41189406 243.14429816 -40.76278921 242.91688714 -44 243 C-44.34256836 244.0737085 -44.68513672 245.14741699 -45.03808594 246.25366211 C-46.3226929 250.27532868 -47.61399538 254.29481994 -48.90722656 258.3137207 C-49.46371442 260.04621637 -50.01843756 261.77927998 -50.57128906 263.51293945 C-51.3708976 266.01929364 -52.17704432 268.5234678 -52.984375 271.02734375 C-53.22621521 271.79022202 -53.46805542 272.55310028 -53.71722412 273.33909607 C-55.24624344 278.05517666 -57.05094174 282.55488688 -59.12115479 287.06021118 C-60.21575494 289.4762147 -61.12524649 291.93429912 -62 294.4375 C-63.57489924 298.85460022 -65.24831676 303.21509389 -67.015625 307.55859375 C-67.64802566 309.12704776 -68.26409121 310.70224255 -68.859375 312.28515625 C-71.20364147 318.44399666 -74.09148772 324.24756057 -77.07495117 330.11352539 C-79.27776482 334.47237182 -81.21214397 338.84417993 -82.9609375 343.40625 C-87.18973867 353.96235517 -92.50549169 364.02531996 -97.88671875 374.02734375 C-99.2918476 376.64363605 -100.64397505 379.27777795 -101.95703125 381.94140625 C-103.76462521 385.58594977 -105.71505914 389.13573444 -107.70556641 392.68310547 C-109.00489092 395.00875421 -110.27720403 397.34734368 -111.54296875 399.69140625 C-116.67785452 409.1659308 -121.99860294 418.44241632 -127.80859375 427.51953125 C-129.32755911 429.89864169 -130.76768069 432.30641229 -132.16015625 434.76171875 C-134 438 -134 438 -136 441 C-139.64391663 440.16710477 -141.52859759 438.7321165 -143.625 435.75 C-149.10057072 425.95287692 -149.52930776 414.16188573 -149.4375 403.1875 C-149.43210205 401.91720947 -149.4267041 400.64691895 -149.42114258 399.33813477 C-149.30266881 389.30296763 -148.40483247 379.39414489 -147.1875 369.4375 C-147.10490936 368.75561615 -147.02231873 368.0737323 -146.93722534 367.3711853 C-145.9475261 359.38556542 -144.55067989 351.61627458 -142.65356445 343.7980957 C-141.88485208 340.50701893 -141.3957003 337.23020882 -141 333.875 C-140.31056258 328.70706829 -139.24028507 323.88391386 -137.78125 318.88671875 C-136.88398735 315.57133325 -136.21625243 312.24679924 -135.5625 308.875 C-132.39495801 292.67992636 -128.12235857 276.81180924 -123.78564453 260.89599609 C-122.81851151 257.33100794 -121.87678297 253.75991932 -120.9375 250.1875 C-119.09989405 243.27271555 -117.12920948 236.39778733 -115.15356445 229.52148438 C-113.38416301 223.36130386 -111.65327406 217.19252653 -110 211 C-110.74378906 210.72929687 -111.48757812 210.45859375 -112.25390625 210.1796875 C-114.85997978 209.06015093 -116.72384237 207.87238619 -118.9375 206.125 C-121.17202874 204.37224851 -123.40473742 202.73150518 -125.7734375 201.16015625 C-136.13903452 194.22047689 -146.92860258 186.5717018 -156 178 C-156 177.34 -156 176.68 -156 176 C-156.99 175.67 -157.98 175.34 -159 175 C-159 174.01 -159 173.02 -159 172 C-158.39849121 172.12117187 -157.79698242 172.24234375 -157.17724609 172.3671875 C-148.26257764 174.1573507 -139.33502021 175.87474319 -130.39794922 177.54931641 C-128.44266284 177.91680354 -126.48870515 178.29135448 -124.53515625 178.66796875 C-116.39839195 180.15245387 -108.24809955 180.60224901 -100 181 C-99.86207031 180.10667969 -99.72414062 179.21335938 -99.58203125 178.29296875 C-98.44882308 171.88159636 -96.31915497 165.78224532 -94.0625 159.6875 C-91.78595163 153.53302892 -89.88913511 147.2823003 -88 141 C-85.35125265 132.24948245 -82.5536114 123.55854001 -79.63671875 114.89404297 C-78.60576332 111.82726681 -77.58464822 108.75722078 -76.5625 105.6875 C-69.28125 83.84375 -69.28125 83.84375 -62 62 C-69.41167146 61.94840372 -76.82329508 61.91390014 -84.23510742 61.89013672 C-86.74554168 61.88020836 -89.2559648 61.86666124 -91.76635742 61.84912109 C-105.38723378 61.75648061 -118.85764761 61.8701996 -132.4155426 63.29489136 C-138.30288978 63.91223529 -144.08068886 64.11314853 -150 64 C-148.26142784 60.23309364 -146.09741625 57.78767463 -143 55 C-142.34 55 -141.68 55 -141 55 C-140.67 54.01 -140.34 53.02 -140 52 C-138.22389031 50.5122198 -136.37826794 49.10652685 -134.5 47.75 C-129.93708006 44.42370835 -125.4496993 41.02923991 -121.03515625 37.5078125 C-118.77433124 35.83280587 -116.42224652 34.43031428 -114 33 C-112.39531926 31.93827656 -110.79118331 30.87572941 -109.1875 29.8125 C-102.08811253 25.2781145 -94.59073381 21.62583628 -87 18 C-86.18789062 17.60941406 -85.37578125 17.21882813 -84.5390625 16.81640625 C-71.16318413 10.64095283 -57.29806115 6.41730371 -43 3 C-42.23921143 2.81453613 -41.47842285 2.62907227 -40.69458008 2.43798828 C-27.47259328 -0.66893259 -13.51569105 -0.25799096 0 0 Z M-26 65 C-25.59682735 70.31551304 -25.18155852 75.61544305 -24.48828125 80.90234375 C-21.52698088 103.56101704 -22.51110467 126.2263055 -24.875 148.875 C-25.00542694 150.12766663 -25.00542694 150.12766663 -25.13848877 151.40563965 C-25.9817376 159.35089141 -26.83030005 167.26296932 -28.63720703 175.05908203 C-29.12249071 177.32622821 -29.12249071 177.32622821 -29 181 C-15.59664774 181.66371483 -3.0219859 179.77499706 10.16259766 177.47412109 C13.8707368 176.85450259 17.57990259 176.38633237 21.3125 175.9375 C26.73247272 175.24857208 31.8902779 174.13263327 37.1640625 172.71875 C39.97490877 172.00635921 42.76619903 171.48047075 45.625 171 C49.96025796 170.25361413 54.05043597 169.16947519 58.22265625 167.78125 C60.68822706 167.08769984 63.09483946 166.58614029 65.609375 166.11328125 C71.25994429 165.01106241 76.69562671 163.4000894 82.1875 161.6875 C83.19562744 161.37627197 84.20375488 161.06504395 85.24243164 160.74438477 C102.09349472 155.51706674 118.67503257 149.7001495 135 143 C135.89460937 142.63390625 136.78921875 142.2678125 137.7109375 141.890625 C146.19623583 138.38731148 154.59893753 134.69945263 163 131 C163 130.01 163 129.02 163 128 C157.21430222 122.61423524 149.76443917 119.23400482 142.72265625 115.82421875 C138.84190782 113.94398328 135.04584782 111.92002561 131.25 109.875 C129.98195805 109.19756612 128.71373415 108.52047268 127.4453125 107.84375 C125.43582372 106.76837732 123.42913779 105.68767417 121.4296875 104.59375 C115.54763755 101.48324223 109.45379475 99.3144039 103.17504883 97.16186523 C99.47691014 95.89082256 95.8634832 94.58664576 92.3125 92.9375 C78.42756102 86.48996571 63.29097416 82.45221648 48.50537109 78.64648438 C46.63754904 78.16451275 44.77086537 77.67812534 42.90478516 77.18945312 C29.62266212 73.71943442 16.45762022 70.44236252 2.8515625 68.55078125 C-0.23387042 68.10955808 -3.21410108 67.56228005 -6.25 66.875 C-12.72936089 65.49150657 -19.39994411 65.33440283 -26 65 Z " fill="#F6F6F6" transform="translate(251,44)"/>
<path d="M0 0 C3.993086 1.46609615 7.47510153 3.38575332 11.125 5.5625 C29.53131739 16.2731153 49.38145531 24.66304551 70 30 C69.38125 30.268125 68.7625 30.53625 68.125 30.8125 C65.7004767 31.95556848 65.7004767 31.95556848 64 35 C64 33.68 64 32.36 64 31 C62.824375 30.87625 61.64875 30.7525 60.4375 30.625 C56.4436686 30.12044123 52.80659267 29.3206546 49 28 C48.505 27.01 48.505 27.01 48 26 C45.2369327 24.69973303 42.51107118 23.86665578 39.5625 23.0625 C36.09994418 22.02980791 33.2220441 20.61102205 30 19 C28.845 18.67 27.69 18.34 26.5 18 C23.05669802 17.01619944 20.14774634 15.68903462 17 14 C17 13.34 17 12.68 17 12 C14.02030478 10.4547162 10.99876118 9.16369282 7.875 7.9375 C3.19444444 6.09722222 3.19444444 6.09722222 1 5 C0.34 5.66 -0.32 6.32 -1 7 C-0.67 4.69 -0.34 2.38 0 0 Z " fill="#CDCDCD" transform="translate(141,255)"/>
<path d="M0 0 C8.0443955 -0.12695314 15.98163043 0.24444746 24 0.875 C25.09828125 0.95363281 26.1965625 1.03226562 27.328125 1.11328125 C34.32310429 1.65199411 41.12604015 2.59662393 48 4 C48 4.33 48 4.66 48 5 C46.56260487 5.02712066 45.12506137 5.04645067 43.6875 5.0625 C42.48673828 5.07990234 42.48673828 5.07990234 41.26171875 5.09765625 C39 5 39 5 36 4 C35.67 4.99 35.34 5.98 35 7 C34.41879395 6.9285376 33.83758789 6.8570752 33.23876953 6.78344727 C26.42919347 6.01618053 19.72261099 5.88087217 12.875 5.9375 C11.823125 5.94201172 10.77125 5.94652344 9.6875 5.95117188 C7.12493779 5.96281989 4.56250123 5.97917447 2 6 C0.68 8.31 -0.64 10.62 -2 13 C-3.55641625 8.33075124 -1.47581383 4.5455066 0 0 Z " fill="#D5D5D5" transform="translate(189,105)"/>
<path d="M0 0 C0.66 0.33 1.32 0.66 2 1 C-1.63 4.96 -5.26 8.92 -9 13 C-0.09 13 8.82 13 18 13 C18 13.33 18 13.66 18 14 C14.37566012 14.34077314 10.75044609 14.6712218 7.125 15 C6.11179687 15.09539062 5.09859375 15.19078125 4.0546875 15.2890625 C-2.31787113 15.86095879 -8.60250235 16.12770164 -15 16 C-13.26142784 12.23309364 -11.09741625 9.78767463 -8 7 C-7.34 7 -6.68 7 -6 7 C-5.67 6.01 -5.34 5.02 -5 4 C-3.37667033 2.61423077 -1.71275535 1.27358732 0 0 Z " fill="#666666" transform="translate(116,92)"/>
<path d="M0 0 C7.00110502 1.35109044 13.62084938 3.46712641 20.3515625 5.78125 C23.88269143 6.96081341 27.41395498 8.00438853 31 9 C30.38125 9.268125 29.7625 9.53625 29.125 9.8125 C26.7004767 10.95556848 26.7004767 10.95556848 25 14 C25 12.68 25 11.36 25 10 C23.824375 9.87625 22.64875 9.7525 21.4375 9.625 C17.4436686 9.12044123 13.80659267 8.3206546 10 7 C9.67 6.34 9.34 5.68 9 5 C6.88672575 4.09274566 6.88672575 4.09274566 4.4375 3.375 C3.61121094 3.11460937 2.78492188 2.85421875 1.93359375 2.5859375 C1.29550781 2.39257812 0.65742188 2.19921875 0 2 C0 1.34 0 0.68 0 0 Z " fill="#CACACA" transform="translate(180,276)"/>
<path d="M0 0 C3.9379989 0.11154263 7.87518032 0.24175737 11.8125 0.375 C13.46282227 0.42140625 13.46282227 0.42140625 15.14648438 0.46875 C22.26192692 0.72062407 29.03654411 1.5105188 36 3 C36 3.33 36 3.66 36 4 C34.56260487 4.02712066 33.12506137 4.04645067 31.6875 4.0625 C30.48673828 4.07990234 30.48673828 4.07990234 29.26171875 4.09765625 C27 4 27 4 24 3 C23.67 3.99 23.34 4.98 23 6 C22.67 5.34 22.34 4.68 22 4 C19.77187153 3.53044799 19.77187153 3.53044799 17.08984375 3.3671875 C15.60581055 3.24150391 15.60581055 3.24150391 14.09179688 3.11328125 C13.05087891 3.03464844 12.00996094 2.95601563 10.9375 2.875 C9.89271484 2.78863281 8.84792969 2.70226562 7.77148438 2.61328125 C5.18155359 2.40041023 2.5912245 2.19638621 0 2 C0 1.34 0 0.68 0 0 Z " fill="#9E9E9E" transform="translate(201,106)"/>
<path d="M0 0 C1.32 0.33 2.64 0.66 4 1 C4 1.33 4 1.66 4 2 C11.425 2.99 11.425 2.99 19 4 C19 4.33 19 4.66 19 5 C17.81921875 4.99097656 16.6384375 4.98195313 15.421875 4.97265625 C13.8645497 5.00080068 12.30725797 5.03084842 10.75 5.0625 C9.97269531 5.05154297 9.19539062 5.04058594 8.39453125 5.02929688 C6.0656986 5.09896281 4.20329717 5.23108284 2 6 C0.01220954 8.23794997 -0.81455491 10.19253462 -2 13 C-3.18414294 9.44757118 -2.69535532 8.30169438 -1.5625 4.8125 C-1.27503906 3.91144531 -0.98757812 3.01039062 -0.69140625 2.08203125 C-0.46324219 1.39496094 -0.23507813 0.70789063 0 0 Z " fill="#A9A9A9" transform="translate(189,105)"/>
<path d="M0 0 C3.40312738 1.05875074 6.01353231 2.00902154 9 4 C10.9118032 4.59138812 10.9118032 4.59138812 12.9375 5 C15.86962385 5.68038233 18.37804397 6.47052565 21 8 C21 8.33 21 8.66 21 9 C15.18645848 9.61846186 12.05496439 8.2421409 7.08984375 5.24609375 C4.80947459 3.886397 2.50051903 2.88728094 0 2 C0 1.34 0 0.68 0 0 Z " fill="#E2E2E2" transform="translate(169,273)"/>
<path d="M0 0 C3.45925163 1.2491742 6.14693203 2.67527795 9 5 C8.67 5.66 8.34 6.32 8 7 C3.25 6.125 3.25 6.125 1 5 C0.34 5.66 -0.32 6.32 -1 7 C-0.67 4.69 -0.34 2.38 0 0 Z " fill="#A7A7A7" transform="translate(141,255)"/>
<path d="M0 0 C0.66 0.33 1.32 0.66 2 1 C0.07212573 3.17595732 -1.86629574 5.34054384 -3.8125 7.5 C-4.35970703 8.12003906 -4.90691406 8.74007812 -5.47070312 9.37890625 C-6.00244141 9.96542969 -6.53417969 10.55195312 -7.08203125 11.15625 C-7.56905518 11.70087891 -8.0560791 12.24550781 -8.55786133 12.80664062 C-10 14 -10 14 -13 14 C-12.05125 13.0925 -11.1025 12.185 -10.125 11.25 C-8.32490471 9.46249279 -7.07677622 8.15355243 -5.9375 5.875 C-4.57511086 3.15022173 -2.41696157 1.78091905 0 0 Z " fill="#9C9C9C" transform="translate(116,92)"/>
<path d="M0 0 C5.445 1.485 5.445 1.485 11 3 C9.02 3.99 9.02 3.99 7 5 C6.01 6.485 6.01 6.485 5 8 C5 6.68 5 5.36 5 4 C2.36 3.67 -0.28 3.34 -3 3 C-2.01 2.01 -1.02 1.02 0 0 Z " fill="#959595" transform="translate(200,282)"/>
<path d="M0 0 C2.31 0 4.62 0 7 0 C7.33 0.99 7.66 1.98 8 3 C5.36 3 2.72 3 0 3 C0 2.01 0 1.02 0 0 Z " fill="#CCCCCC" transform="translate(193,105)"/>
<path d="M0 0 C0.99 0.66 1.98 1.32 3 2 C2.67 3.98 2.34 5.96 2 8 C1.67 7.34 1.34 6.68 1 6 C0.34 5.67 -0.32 5.34 -1 5 C-1.33 4.01 -1.66 3.02 -2 2 C-1.34 2 -0.68 2 0 2 C0 1.34 0 0.68 0 0 Z " fill="#5D5D5D" transform="translate(415,169)"/>
<path d="M0 0 C4.95 0.99 4.95 0.99 10 2 C10 2.33 10 2.66 10 3 C6.66666667 3 3.33333333 3 0 3 C0 2.01 0 1.02 0 0 Z " fill="#515151" transform="translate(92,216)"/>
</svg>
